<mxfile host="app.diagrams.net" modified="2022-03-15T12:28:12.746Z" agent="5.0 (Windows NT 10.0; Win64; x64) AppleWebKit/537.36 (KHTML, like Gecko) Chrome/99.0.4844.51 Safari/537.36" etag="fHfkNG_CWojo0s9SW6dO" version="17.1.2" type="github">
  <diagram id="kyv-Pfv23gA9csW_IkZh" name="Page-1">
    <mxGraphModel dx="1824" dy="644" grid="1" gridSize="10" guides="1" tooltips="1" connect="1" arrows="1" fold="1" page="1" pageScale="1" pageWidth="827" pageHeight="1169" math="0" shadow="0">
      <root>
        <mxCell id="0" />
        <mxCell id="1" parent="0" />
        <mxCell id="LoTI6cqvOIeO2nbHAi1N-2" value="" style="rounded=0;whiteSpace=wrap;html=1;" vertex="1" parent="1">
          <mxGeometry width="820" height="1160" as="geometry" />
        </mxCell>
        <mxCell id="LoTI6cqvOIeO2nbHAi1N-4" value="" style="rounded=0;whiteSpace=wrap;html=1;fillColor=#dae8fc;strokeColor=#6c8ebf;" vertex="1" parent="1">
          <mxGeometry x="350" y="500" width="446.5" height="220" as="geometry" />
        </mxCell>
        <mxCell id="82b8sqedpG5tDT-W9cHj-2" value="&lt;h3&gt;&lt;b&gt;DB&lt;/b&gt;&lt;/h3&gt;Coleccion de &lt;b&gt;datos &lt;/b&gt;relacionados que sirven un propósito.&lt;br&gt;&lt;br&gt;" style="ellipse;whiteSpace=wrap;html=1;" parent="1" vertex="1">
          <mxGeometry x="340" y="110" width="159" height="100" as="geometry" />
        </mxCell>
        <mxCell id="82b8sqedpG5tDT-W9cHj-5" value="* Representa aspectos del mundo real." style="text;html=1;strokeColor=none;fillColor=none;align=center;verticalAlign=middle;whiteSpace=wrap;rounded=0;" parent="1" vertex="1">
          <mxGeometry x="533" y="110" width="230" height="30" as="geometry" />
        </mxCell>
        <mxCell id="82b8sqedpG5tDT-W9cHj-6" value="* Colección coherente de datos con significado inherente. Una BD no puede ser un conjunto aleatorio de datos." style="text;html=1;strokeColor=none;fillColor=none;align=center;verticalAlign=middle;whiteSpace=wrap;rounded=0;" parent="1" vertex="1">
          <mxGeometry x="533" y="210" width="257" height="30" as="geometry" />
        </mxCell>
        <mxCell id="hzKp8I5DXXiYu1HuEsjh-1" value="* Sustentada fisicamente en archivos en Hard." style="text;html=1;strokeColor=none;fillColor=none;align=center;verticalAlign=middle;whiteSpace=wrap;rounded=0;" parent="1" vertex="1">
          <mxGeometry x="536.5" y="160" width="250" height="30" as="geometry" />
        </mxCell>
        <mxCell id="y5L1Ravf5SmVqJsjnQwp-1" value="&lt;b&gt;DBMS&lt;/b&gt;&lt;br&gt;&lt;br&gt;SISTEMA GESTOR DE BASE DE DATOS" style="ellipse;whiteSpace=wrap;html=1;" parent="1" vertex="1">
          <mxGeometry x="300" y="295" width="180" height="90" as="geometry" />
        </mxCell>
        <mxCell id="y5L1Ravf5SmVqJsjnQwp-2" value="OBJETIVOS" style="text;html=1;strokeColor=none;fillColor=none;align=center;verticalAlign=middle;whiteSpace=wrap;rounded=0;fontStyle=1" parent="1" vertex="1">
          <mxGeometry x="130" y="440" width="100" height="30" as="geometry" />
        </mxCell>
        <mxCell id="y5L1Ravf5SmVqJsjnQwp-19" value="COMPONENTES" style="text;html=1;strokeColor=none;fillColor=none;align=center;verticalAlign=middle;whiteSpace=wrap;rounded=0;fontStyle=1" parent="1" vertex="1">
          <mxGeometry x="520" y="440" width="100" height="30" as="geometry" />
        </mxCell>
        <mxCell id="y5L1Ravf5SmVqJsjnQwp-22" value="DDL: Para especificar el esquema de la DB" style="text;html=1;strokeColor=#82b366;fillColor=#d5e8d4;align=center;verticalAlign=middle;whiteSpace=wrap;rounded=0;" parent="1" vertex="1">
          <mxGeometry x="370" y="515" width="171.5" height="30" as="geometry" />
        </mxCell>
        <mxCell id="y5L1Ravf5SmVqJsjnQwp-23" value="DML: Para Consulta y ABM de la DB" style="text;html=1;strokeColor=#82b366;fillColor=#d5e8d4;align=center;verticalAlign=middle;whiteSpace=wrap;rounded=0;" parent="1" vertex="1">
          <mxGeometry x="587.75" y="515" width="144.5" height="30" as="geometry" />
        </mxCell>
        <mxCell id="y5L1Ravf5SmVqJsjnQwp-24" value="Procedimentales (SQL): Requiere que el usuario especifique que datos se muestran y como obtenerlos" style="text;html=1;strokeColor=none;fillColor=none;align=center;verticalAlign=middle;whiteSpace=wrap;rounded=0;" parent="1" vertex="1">
          <mxGeometry x="541.5" y="575" width="220" height="30" as="geometry" />
        </mxCell>
        <mxCell id="y5L1Ravf5SmVqJsjnQwp-25" value="No precedimentales (QBE): Solo requiere esicificar los datos que se quieren" style="text;html=1;strokeColor=none;fillColor=none;align=center;verticalAlign=middle;whiteSpace=wrap;rounded=0;" parent="1" vertex="1">
          <mxGeometry x="536.5" y="630" width="240" height="30" as="geometry" />
        </mxCell>
        <mxCell id="igbWti4xABd6nXq-48ni-3" value="" style="endArrow=classic;html=1;rounded=0;exitX=0.5;exitY=0;exitDx=0;exitDy=0;entryX=0.5;entryY=1;entryDx=0;entryDy=0;startArrow=none;" parent="1" source="y5L1Ravf5SmVqJsjnQwp-1" target="82b8sqedpG5tDT-W9cHj-2" edge="1">
          <mxGeometry width="50" height="50" relative="1" as="geometry">
            <mxPoint x="390" y="390" as="sourcePoint" />
            <mxPoint x="440" y="340" as="targetPoint" />
          </mxGeometry>
        </mxCell>
        <mxCell id="igbWti4xABd6nXq-48ni-4" value="Colección de programas que permite almacenar, modificar y consultar la informacion de una DB." style="text;html=1;strokeColor=#6c8ebf;fillColor=#dae8fc;align=center;verticalAlign=middle;whiteSpace=wrap;rounded=0;" parent="1" vertex="1">
          <mxGeometry x="43.5" y="310" width="200" height="60" as="geometry" />
        </mxCell>
        <mxCell id="igbWti4xABd6nXq-48ni-6" value="" style="endArrow=classic;html=1;rounded=0;exitX=0.25;exitY=1;exitDx=0;exitDy=0;startArrow=none;entryX=0.5;entryY=0;entryDx=0;entryDy=0;" parent="1" source="igbWti4xABd6nXq-48ni-7" target="igbWti4xABd6nXq-48ni-9" edge="1">
          <mxGeometry width="50" height="50" relative="1" as="geometry">
            <mxPoint x="390" y="300" as="sourcePoint" />
            <mxPoint x="430" y="370" as="targetPoint" />
          </mxGeometry>
        </mxCell>
        <mxCell id="igbWti4xABd6nXq-48ni-7" value="¿QUÉ ES UN DATO?" style="text;html=1;strokeColor=none;fillColor=none;align=center;verticalAlign=middle;whiteSpace=wrap;rounded=0;" parent="1" vertex="1">
          <mxGeometry x="175" y="145" width="120" height="30" as="geometry" />
        </mxCell>
        <mxCell id="igbWti4xABd6nXq-48ni-8" value="" style="endArrow=none;html=1;rounded=0;exitX=0;exitY=0.5;exitDx=0;exitDy=0;entryX=1;entryY=0.5;entryDx=0;entryDy=0;" parent="1" source="82b8sqedpG5tDT-W9cHj-2" target="igbWti4xABd6nXq-48ni-7" edge="1">
          <mxGeometry width="50" height="50" relative="1" as="geometry">
            <mxPoint x="455.1040764008567" y="225.35533905932743" as="sourcePoint" />
            <mxPoint x="520" y="250" as="targetPoint" />
          </mxGeometry>
        </mxCell>
        <mxCell id="igbWti4xABd6nXq-48ni-9" value="Representa hechos conocidos que pueden registrarse y tienen un resultado implícito." style="text;html=1;strokeColor=none;fillColor=none;align=center;verticalAlign=middle;whiteSpace=wrap;rounded=0;" parent="1" vertex="1">
          <mxGeometry x="10" y="210" width="240" height="30" as="geometry" />
        </mxCell>
        <mxCell id="igbWti4xABd6nXq-48ni-12" value="" style="endArrow=none;html=1;rounded=0;exitX=0;exitY=0.5;exitDx=0;exitDy=0;" parent="1" source="y5L1Ravf5SmVqJsjnQwp-1" target="igbWti4xABd6nXq-48ni-4" edge="1">
          <mxGeometry width="50" height="50" relative="1" as="geometry">
            <mxPoint x="413.5" y="295" as="sourcePoint" />
            <mxPoint x="463.5" y="245" as="targetPoint" />
          </mxGeometry>
        </mxCell>
        <mxCell id="igbWti4xABd6nXq-48ni-22" value="" style="endArrow=none;html=1;rounded=0;exitX=0.995;exitY=0.314;exitDx=0;exitDy=0;exitPerimeter=0;entryX=0;entryY=0.5;entryDx=0;entryDy=0;" parent="1" source="82b8sqedpG5tDT-W9cHj-2" target="82b8sqedpG5tDT-W9cHj-5" edge="1">
          <mxGeometry width="50" height="50" relative="1" as="geometry">
            <mxPoint x="390" y="300" as="sourcePoint" />
            <mxPoint x="440" y="250" as="targetPoint" />
          </mxGeometry>
        </mxCell>
        <mxCell id="igbWti4xABd6nXq-48ni-23" value="" style="endArrow=none;html=1;rounded=0;exitX=1;exitY=1;exitDx=0;exitDy=0;entryX=0;entryY=0.5;entryDx=0;entryDy=0;" parent="1" source="82b8sqedpG5tDT-W9cHj-2" target="82b8sqedpG5tDT-W9cHj-6" edge="1">
          <mxGeometry width="50" height="50" relative="1" as="geometry">
            <mxPoint x="390" y="300" as="sourcePoint" />
            <mxPoint x="440" y="250" as="targetPoint" />
          </mxGeometry>
        </mxCell>
        <mxCell id="igbWti4xABd6nXq-48ni-24" value="" style="endArrow=none;html=1;rounded=0;exitX=0;exitY=0.5;exitDx=0;exitDy=0;entryX=0.99;entryY=0.642;entryDx=0;entryDy=0;entryPerimeter=0;" parent="1" source="hzKp8I5DXXiYu1HuEsjh-1" target="82b8sqedpG5tDT-W9cHj-2" edge="1">
          <mxGeometry width="50" height="50" relative="1" as="geometry">
            <mxPoint x="390" y="300" as="sourcePoint" />
            <mxPoint x="440" y="250" as="targetPoint" />
          </mxGeometry>
        </mxCell>
        <mxCell id="igbWti4xABd6nXq-48ni-26" value="" style="endArrow=classic;html=1;rounded=0;exitX=0;exitY=1;exitDx=0;exitDy=0;entryX=0.75;entryY=0;entryDx=0;entryDy=0;" parent="1" source="y5L1Ravf5SmVqJsjnQwp-1" target="y5L1Ravf5SmVqJsjnQwp-2" edge="1">
          <mxGeometry width="50" height="50" relative="1" as="geometry">
            <mxPoint x="413.5" y="575" as="sourcePoint" />
            <mxPoint x="463.5" y="525" as="targetPoint" />
          </mxGeometry>
        </mxCell>
        <mxCell id="igbWti4xABd6nXq-48ni-27" value="" style="endArrow=classic;html=1;rounded=0;entryX=0;entryY=0;entryDx=0;entryDy=0;" parent="1" source="y5L1Ravf5SmVqJsjnQwp-1" target="y5L1Ravf5SmVqJsjnQwp-19" edge="1">
          <mxGeometry width="50" height="50" relative="1" as="geometry">
            <mxPoint x="413.5" y="575" as="sourcePoint" />
            <mxPoint x="463.5" y="525" as="targetPoint" />
          </mxGeometry>
        </mxCell>
        <mxCell id="igbWti4xABd6nXq-48ni-31" value="" style="rounded=0;whiteSpace=wrap;html=1;fillColor=#dae8fc;strokeColor=#6c8ebf;" parent="1" vertex="1">
          <mxGeometry x="25" y="500" width="290" height="390" as="geometry" />
        </mxCell>
        <mxCell id="y5L1Ravf5SmVqJsjnQwp-3" value="Evitar redundancia e inconsistencia de datos." style="text;html=1;strokeColor=none;fillColor=none;align=center;verticalAlign=middle;whiteSpace=wrap;rounded=0;" parent="1" vertex="1">
          <mxGeometry x="10" y="545" width="310" height="30" as="geometry" />
        </mxCell>
        <mxCell id="y5L1Ravf5SmVqJsjnQwp-6" value="Permitir el acceso a los datos en todo momento. (no de 8hs a 20hs xdd)" style="text;html=1;strokeColor=none;fillColor=none;align=center;verticalAlign=middle;whiteSpace=wrap;rounded=0;" parent="1" vertex="1">
          <mxGeometry x="30" y="590" width="260" height="30" as="geometry" />
        </mxCell>
        <mxCell id="y5L1Ravf5SmVqJsjnQwp-7" value="Evitar anomalías en acceso concurrente &lt;br&gt;(Rip SIU inscripciones)." style="text;html=1;strokeColor=none;fillColor=none;align=center;verticalAlign=middle;whiteSpace=wrap;rounded=0;" parent="1" vertex="1">
          <mxGeometry x="25" y="640" width="270" height="30" as="geometry" />
        </mxCell>
        <mxCell id="y5L1Ravf5SmVqJsjnQwp-8" value="Restricción de accesos no autorizados." style="text;html=1;strokeColor=none;fillColor=none;align=center;verticalAlign=middle;whiteSpace=wrap;rounded=0;" parent="1" vertex="1">
          <mxGeometry x="30" y="690" width="250" height="30" as="geometry" />
        </mxCell>
        <mxCell id="y5L1Ravf5SmVqJsjnQwp-9" value="Suministro de almacenamiento persistente de datos, incluso ante fallos." style="text;html=1;strokeColor=none;fillColor=none;align=center;verticalAlign=middle;whiteSpace=wrap;rounded=0;" parent="1" vertex="1">
          <mxGeometry x="35" y="740" width="250" height="30" as="geometry" />
        </mxCell>
        <mxCell id="y5L1Ravf5SmVqJsjnQwp-10" value="Integridad de datos." style="text;html=1;strokeColor=none;fillColor=none;align=center;verticalAlign=middle;whiteSpace=wrap;rounded=0;" parent="1" vertex="1">
          <mxGeometry x="10" y="790" width="300" height="30" as="geometry" />
        </mxCell>
        <mxCell id="y5L1Ravf5SmVqJsjnQwp-11" value="Backups" style="text;html=1;strokeColor=none;fillColor=none;align=center;verticalAlign=middle;whiteSpace=wrap;rounded=0;" parent="1" vertex="1">
          <mxGeometry x="125" y="830" width="60" height="30" as="geometry" />
        </mxCell>
        <mxCell id="LoTI6cqvOIeO2nbHAi1N-3" style="edgeStyle=orthogonalEdgeStyle;rounded=0;orthogonalLoop=1;jettySize=auto;html=1;exitX=0.5;exitY=1;exitDx=0;exitDy=0;" edge="1" parent="1" source="igbWti4xABd6nXq-48ni-9" target="igbWti4xABd6nXq-48ni-9">
          <mxGeometry relative="1" as="geometry" />
        </mxCell>
        <mxCell id="LoTI6cqvOIeO2nbHAi1N-5" value="" style="endArrow=classic;html=1;rounded=0;exitX=0.25;exitY=1;exitDx=0;exitDy=0;entryX=0.75;entryY=0;entryDx=0;entryDy=0;" edge="1" parent="1" source="y5L1Ravf5SmVqJsjnQwp-19" target="y5L1Ravf5SmVqJsjnQwp-22">
          <mxGeometry width="50" height="50" relative="1" as="geometry">
            <mxPoint x="490" y="540" as="sourcePoint" />
            <mxPoint x="540" y="490" as="targetPoint" />
          </mxGeometry>
        </mxCell>
        <mxCell id="LoTI6cqvOIeO2nbHAi1N-6" value="" style="endArrow=classic;html=1;rounded=0;exitX=0.75;exitY=1;exitDx=0;exitDy=0;entryX=0.5;entryY=0;entryDx=0;entryDy=0;" edge="1" parent="1" source="y5L1Ravf5SmVqJsjnQwp-19" target="y5L1Ravf5SmVqJsjnQwp-23">
          <mxGeometry width="50" height="50" relative="1" as="geometry">
            <mxPoint x="490" y="540" as="sourcePoint" />
            <mxPoint x="540" y="490" as="targetPoint" />
          </mxGeometry>
        </mxCell>
      </root>
    </mxGraphModel>
  </diagram>
</mxfile>
